<svg xmlns="http://www.w3.org/2000/svg" width="17.049" height="19.485" viewBox="0 0 17.049 19.485">
  <path id="Icon_awesome-calendar-alt" data-name="Icon awesome-calendar-alt" d="M0,17.658a1.827,1.827,0,0,0,1.827,1.827h13.4a1.827,1.827,0,0,0,1.827-1.827V7.307H0ZM12.178,10.2a.458.458,0,0,1,.457-.457h1.522a.458.458,0,0,1,.457.457v1.522a.458.458,0,0,1-.457.457H12.634a.458.458,0,0,1-.457-.457Zm0,4.871a.458.458,0,0,1,.457-.457h1.522a.458.458,0,0,1,.457.457v1.522a.458.458,0,0,1-.457.457H12.634a.458.458,0,0,1-.457-.457ZM7.307,10.2a.458.458,0,0,1,.457-.457H9.286a.458.458,0,0,1,.457.457v1.522a.458.458,0,0,1-.457.457H7.763a.458.458,0,0,1-.457-.457Zm0,4.871a.458.458,0,0,1,.457-.457H9.286a.458.458,0,0,1,.457.457v1.522a.458.458,0,0,1-.457.457H7.763a.458.458,0,0,1-.457-.457ZM2.436,10.2a.458.458,0,0,1,.457-.457H4.414a.458.458,0,0,1,.457.457v1.522a.458.458,0,0,1-.457.457H2.892a.458.458,0,0,1-.457-.457Zm0,4.871a.458.458,0,0,1,.457-.457H4.414a.458.458,0,0,1,.457.457v1.522a.458.458,0,0,1-.457.457H2.892a.458.458,0,0,1-.457-.457ZM15.222,2.436H13.4V.609A.611.611,0,0,0,12.787,0H11.569a.611.611,0,0,0-.609.609V2.436H6.089V.609A.611.611,0,0,0,5.48,0H4.262a.611.611,0,0,0-.609.609V2.436H1.827A1.827,1.827,0,0,0,0,4.262V6.089H17.049V4.262A1.827,1.827,0,0,0,15.222,2.436Z"/>
</svg>
