<svg xmlns="http://www.w3.org/2000/svg" width="22.883" height="36.612" viewBox="0 0 22.883 36.612">
  <path id="Icon_awesome-walking" data-name="Icon awesome-walking" d="M14.871,6.864A3.432,3.432,0,1,0,11.44,3.432,3.433,3.433,0,0,0,14.871,6.864Zm6.757,10.66-1.666-.844-.694-2.1a7.8,7.8,0,0,0-7.307-5.427c-2.574-.007-4,.722-6.671,1.8a6.82,6.82,0,0,0-3.553,3.3l-.479.972A2.3,2.3,0,0,0,2.274,18.3a2.257,2.257,0,0,0,3.039-1.022l.479-.972a2.273,2.273,0,0,1,1.18-1.1l1.916-.772L7.8,18.768a4.592,4.592,0,0,0,1.065,4.2l4.283,4.676a4.614,4.614,0,0,1,1.065,1.98l1.308,5.241a2.288,2.288,0,1,0,4.44-1.108L18.375,27.4a4.574,4.574,0,0,0-1.065-1.98l-3.253-3.553,1.23-4.912.393,1.18a4.56,4.56,0,0,0,2.266,2.645l1.666.844A2.257,2.257,0,0,0,22.65,20.6a2.315,2.315,0,0,0-1.022-3.074ZM5.262,27.584a4.437,4.437,0,0,1-1.015,1.537L.672,32.7A2.288,2.288,0,0,0,3.9,35.942l4.247-4.247a4.647,4.647,0,0,0,1.015-1.537l.965-2.417C6.177,23.43,7.364,24.753,6.742,23.9l-1.48,3.682Z" transform="translate(-0.002)"/>
</svg>
