<svg xmlns="http://www.w3.org/2000/svg" width="26.682" height="23.347" viewBox="0 0 26.682 23.347">
  <path id="Icon_awesome-sliders-h" data-name="Icon awesome-sliders-h" d="M25.849,20.594H8.338V19.76a.836.836,0,0,0-.834-.834H5.837A.836.836,0,0,0,5,19.76v.834H.834A.836.836,0,0,0,0,21.428V23.1a.836.836,0,0,0,.834.834H5v.834a.836.836,0,0,0,.834.834H7.5a.836.836,0,0,0,.834-.834V23.93h17.51a.836.836,0,0,0,.834-.834V21.428A.836.836,0,0,0,25.849,20.594Zm0-8.338H21.68v-.834a.836.836,0,0,0-.834-.834H19.178a.836.836,0,0,0-.834.834v.834H.834A.836.836,0,0,0,0,13.09v1.668a.836.836,0,0,0,.834.834h17.51v.834a.836.836,0,0,0,.834.834h1.668a.836.836,0,0,0,.834-.834v-.834h4.169a.836.836,0,0,0,.834-.834V13.09A.836.836,0,0,0,25.849,12.256Zm0-8.338H15.009V3.084a.836.836,0,0,0-.834-.834H12.507a.836.836,0,0,0-.834.834v.834H.834A.836.836,0,0,0,0,4.751V6.419a.836.836,0,0,0,.834.834h10.84v.834a.836.836,0,0,0,.834.834h1.668a.836.836,0,0,0,.834-.834V7.253h10.84a.836.836,0,0,0,.834-.834V4.751A.836.836,0,0,0,25.849,3.918Z" transform="translate(0 -2.25)"/>
</svg>
