<svg xmlns="http://www.w3.org/2000/svg" width="12.581" height="14.678" viewBox="0 0 12.581 14.678">
  <path id="Icon_awesome-ruble-sign" data-name="Icon awesome-ruble-sign" d="M7.842,11.686a4.537,4.537,0,0,0,4.739-4.748A4.488,4.488,0,0,0,7.842,2.25H2.49a.393.393,0,0,0-.393.393v6.77H.393A.393.393,0,0,0,0,9.806v1.486a.393.393,0,0,0,.393.393H2.1v1.048H.393A.393.393,0,0,0,0,13.127v1.311a.393.393,0,0,0,.393.393H2.1v1.7a.393.393,0,0,0,.393.393H4.409a.393.393,0,0,0,.393-.393v-1.7h5.289a.393.393,0,0,0,.393-.393V13.127a.393.393,0,0,0-.393-.393H4.8V11.686ZM4.8,4.5H7.381A2.269,2.269,0,0,1,9.834,6.937a2.3,2.3,0,0,1-2.5,2.476H4.8Z" transform="translate(0 -2.25)"/>
</svg>
