<svg id="feather_message-square" data-name="feather / message-square" xmlns="http://www.w3.org/2000/svg" width="20.053" height="21.322" viewBox="0 0 20.053 21.322">
  <path id="Path" d="M9.977,21.322a1.033,1.033,0,0,1-.344-.044.784.784,0,0,1-.116-.044l-.092-.047-.056-.016-.047-.02-.091-.045a22.273,22.273,0,0,1-5.348-4.4,16.754,16.754,0,0,1-3.488-6.13A11.584,11.584,0,0,1,.077,6.232a8.139,8.139,0,0,1,1.592-4.16A4.5,4.5,0,0,1,5.308,0a6.351,6.351,0,0,1,4.56,2.307l.087.1.1-.131A5.909,5.909,0,0,1,14.408.006L14.648,0a4.785,4.785,0,0,1,3.724,2.061c1.777,2.224,2.043,6.087,1.274,8.537-1.259,4.184-4.065,7.523-8.831,10.507l-.142.077A1.5,1.5,0,0,1,9.977,21.322ZM5.308,1.939A2.978,2.978,0,0,0,2.894,3.382c-1.327,1.659-1.466,4.623-.924,6.57a14.767,14.767,0,0,0,3.139,5.43,20.933,20.933,0,0,0,4.882,4l-.152-.095.083.022a.762.762,0,0,1,.1.042l.039.022.323-.2a22.137,22.137,0,0,0,4.654-3.875,14.083,14.083,0,0,0,2.918-4.981l.117-.368a10.037,10.037,0,0,0,.26-2.785A6.417,6.417,0,0,0,17.165,3.4a3.224,3.224,0,0,0-2.517-1.458,4.628,4.628,0,0,0-3.985,2.536A.768.768,0,0,1,9.305,4.5,5.135,5.135,0,0,0,5.308,1.939Z" transform="translate(0)" fill="#18191f"/>
</svg>
