<svg id="feather_menu" data-name="feather / menu" xmlns="http://www.w3.org/2000/svg" xmlns:xlink="http://www.w3.org/1999/xlink" width="23" height="23" viewBox="0 0 23 23">
  <defs>
    <clipPath id="clip-path">
      <path id="Combined_Shape" data-name="Combined Shape" d="M19.248,22.484l-.175-.157L11.5,14.753,3.926,22.327a2.3,2.3,0,0,1-3.41-3.079l.157-.175L8.247,11.5.674,3.926A2.3,2.3,0,0,1,3.753.516l.174.157L11.5,8.247,19.073.674a2.3,2.3,0,0,1,3.411,3.079l-.157.174L14.753,11.5l7.574,7.573a2.3,2.3,0,0,1-3.079,3.411Z" transform="translate(0 0)" fill="#18191f"/>
    </clipPath>
  </defs>
  <g id="Group_20" data-name="Group 20" transform="translate(0 0)">
    <path id="Combined_Shape-2" data-name="Combined Shape" d="M19.248,22.484l-.175-.157L11.5,14.753,3.926,22.327a2.3,2.3,0,0,1-3.41-3.079l.157-.175L8.247,11.5.674,3.926A2.3,2.3,0,0,1,3.753.516l.174.157L11.5,8.247,19.073.674a2.3,2.3,0,0,1,3.411,3.079l-.157.174L14.753,11.5l7.574,7.573a2.3,2.3,0,0,1-3.079,3.411Z" transform="translate(0 0)" fill="#18191f"/>
    <g id="Mask_Group_20" data-name="Mask Group 20" clip-path="url(#clip-path)">
      <g id="COLOR_black" data-name="COLOR/ black" transform="translate(-6.9 -6.9)">
        <rect id="Rectangle" width="36.8" height="36.8" fill="#18191f"/>
      </g>
    </g>
  </g>
</svg>
