<svg xmlns="http://www.w3.org/2000/svg" xmlns:xlink="http://www.w3.org/1999/xlink" width="10" height="13" viewBox="0 0 10 13">
  <defs>
    <clipPath id="clip-path">
      <path id="Combined_Shape" data-name="Combined Shape" d="M2.146,12.841l-2-2.166A.541.541,0,0,1,.06,10.55h0l0-.01,0,0,0-.007,0-.006,0,0,0-.01h0a.585.585,0,0,1,0-.432h0l0-.01,0,0,0-.006,0-.007,0,0,0-.01h0a.541.541,0,0,1,.086-.125l2-2.166a.473.473,0,0,1,.707,0,.574.574,0,0,1,0,.766L1.707,9.75H7.5A1.566,1.566,0,0,0,9,8.125V7.041a.5.5,0,1,1,1,0V8.125a2.61,2.61,0,0,1-2.5,2.708H1.707l1.147,1.242a.574.574,0,0,1,0,.766.473.473,0,0,1-.707,0ZM0,5.958V4.875A2.611,2.611,0,0,1,2.5,2.166H8.293L7.146.925a.574.574,0,0,1,0-.766.474.474,0,0,1,.707,0l2,2.167.008.009h0a.576.576,0,0,1,.024.718l0,0,0,.006-.006.008,0,0-.02.023-2,2.164a.473.473,0,0,1-.707,0,.574.574,0,0,1,0-.766L8.293,3.25H2.5A1.566,1.566,0,0,0,1,4.875V5.958A.522.522,0,0,1,.5,6.5.522.522,0,0,1,0,5.958Z" fill="#18191f"/>
    </clipPath>
  </defs>
  <g id="feather_repeat" data-name="feather / repeat" transform="translate(0 0)">
    <g id="Group_35" data-name="Group 35" transform="translate(0 0)">
      <path id="Combined_Shape-2" data-name="Combined Shape" d="M2.146,12.841l-2-2.166A.541.541,0,0,1,.06,10.55h0l0-.01,0,0,0-.007,0-.006,0,0,0-.01h0a.585.585,0,0,1,0-.432h0l0-.01,0,0,0-.006,0-.007,0,0,0-.01h0a.541.541,0,0,1,.086-.125l2-2.166a.473.473,0,0,1,.707,0,.574.574,0,0,1,0,.766L1.707,9.75H7.5A1.566,1.566,0,0,0,9,8.125V7.041a.5.5,0,1,1,1,0V8.125a2.61,2.61,0,0,1-2.5,2.708H1.707l1.147,1.242a.574.574,0,0,1,0,.766.473.473,0,0,1-.707,0ZM0,5.958V4.875A2.611,2.611,0,0,1,2.5,2.166H8.293L7.146.925a.574.574,0,0,1,0-.766.474.474,0,0,1,.707,0l2,2.167.008.009h0a.576.576,0,0,1,.024.718l0,0,0,.006-.006.008,0,0-.02.023-2,2.164a.473.473,0,0,1-.707,0,.574.574,0,0,1,0-.766L8.293,3.25H2.5A1.566,1.566,0,0,0,1,4.875V5.958A.522.522,0,0,1,.5,6.5.522.522,0,0,1,0,5.958Z" fill="#18191f"/>
      <g id="Mask_Group_35" data-name="Mask Group 35" clip-path="url(#clip-path)">
        <g id="COLOR_black" data-name="COLOR/ black" transform="translate(-1.176)">
          <rect id="Rectangle" width="11.765" height="13" fill="#18191f"/>
        </g>
      </g>
    </g>
  </g>
</svg>
