<svg xmlns="http://www.w3.org/2000/svg" width="21" height="23.845" viewBox="0 0 21 23.845">
  <g id="feather_message-square" data-name="feather / message-square" transform="translate(0.5 0.5)">
    <path id="Subtraction_15" data-name="Subtraction 15" d="M1.006,22.846A1.068,1.068,0,0,1,0,21.7V3.428A3.238,3.238,0,0,1,3,0H17a3.238,3.238,0,0,1,3,3.427V14.849a3.237,3.237,0,0,1-3,3.425H5.414L1.706,22.509A.93.93,0,0,1,1.006,22.846ZM3,2.285A1.08,1.08,0,0,0,2,3.428V18.943l2.292-2.617A.943.943,0,0,1,5,15.99H17a1.078,1.078,0,0,0,1-1.141V3.428a1.08,1.08,0,0,0-1-1.143Z" fill="#18191f" stroke="rgba(0,0,0,0)" stroke-miterlimit="10" stroke-width="1"/>
  </g>
</svg>
