<svg id="feather_heart-fill" data-name="feather / heart-fill" xmlns="http://www.w3.org/2000/svg" xmlns:xlink="http://www.w3.org/1999/xlink" width="21" height="21" viewBox="0 0 21 21">
  <defs>
    <clipPath id="clip-path">
      <path id="Combined_Shape" data-name="Combined Shape" d="M10.147,21a1.5,1.5,0,0,1-1.5-1.5V12.352H1.5a1.5,1.5,0,0,1-1.5-1.5v-.706a1.5,1.5,0,0,1,1.5-1.5H8.647V1.5a1.5,1.5,0,0,1,1.5-1.5h.706a1.5,1.5,0,0,1,1.5,1.5V8.647H19.5a1.5,1.5,0,0,1,1.5,1.5v.706a1.5,1.5,0,0,1-1.5,1.5H12.352V19.5a1.5,1.5,0,0,1-1.5,1.5Z" fill="#18191f"/>
    </clipPath>
  </defs>
  <g id="Group_31" data-name="Group 31">
    <path id="Combined_Shape-2" data-name="Combined Shape" d="M10.147,21a1.5,1.5,0,0,1-1.5-1.5V12.352H1.5a1.5,1.5,0,0,1-1.5-1.5v-.706a1.5,1.5,0,0,1,1.5-1.5H8.647V1.5a1.5,1.5,0,0,1,1.5-1.5h.706a1.5,1.5,0,0,1,1.5,1.5V8.647H19.5a1.5,1.5,0,0,1,1.5,1.5v.706a1.5,1.5,0,0,1-1.5,1.5H12.352V19.5a1.5,1.5,0,0,1-1.5,1.5Z" fill="#18191f"/>
    <g id="Mask_Group_31" data-name="Mask Group 31" clip-path="url(#clip-path)">
      <g id="COLOR_black" data-name="COLOR/ black" transform="translate(-4.324 -4.324)">
        <rect id="Rectangle" width="29.647" height="29.647" fill="#18191f"/>
      </g>
    </g>
  </g>
</svg>
