<svg xmlns="http://www.w3.org/2000/svg" width="56.847" height="37.129" viewBox="0 0 56.847 37.129">
  <path id="hiring-icon" d="M43.154,14.311c1.314,2.776,6.62,2.924,7.8-.194,3.6,2.313,5.912,1.874,5.889,6.976H43.209a14.957,14.957,0,0,1-2.073,4.913l6.477,7.05-4.464,4.076L36.9,30.271a14.952,14.952,0,0,1-22.9-9.317H0c.4-5.2,1.388-4.561,5.815-7.333,1.221,3.178,7.1,3.386,8.387,0l.069.042a14.942,14.942,0,0,1,28.882.648ZM23.788,17.165a3.137,3.137,0,0,1-1.471-.925c2.313-.87,1.05-4.714,1.726-6.662a3.9,3.9,0,0,1,5.912-1.915c1.388-.148,2.841.578,3.146,2.776.254,1.827-.648,4.964,1.457,5.972a3.456,3.456,0,0,1-1.61.777,16.654,16.654,0,0,1-2.54.282v.763l.888,1.416-2.859,2.234-2.854-2.234.634-1.355V17.47a10.71,10.71,0,0,1-2.429-.305Zm9.137,3.678A6.939,6.939,0,0,0,31.6,18.789c5.14,1.989,4.686.643,5.75,4.807.1.379.208.8.333,1.281-4.164,5.343-14.082,5.343-18.5,0,.13-.463.241-.925.338-1.3,1.046-4.108.574-2.776,5.778-4.774a6.838,6.838,0,0,0-1.323,2.054l1.342-.032,3.049,2.438,3.2-2.438,1.36.032Zm5.089-12.4a13.263,13.263,0,0,0-18.769,0,13.416,13.416,0,0,0,0,18.773A13.272,13.272,0,1,0,38.01,8.439ZM7.194,13.372a1.911,1.911,0,0,1,.208-.685,2.776,2.776,0,0,1-1.11-2.045h-.06a.81.81,0,0,1-.4-.1,1.106,1.106,0,0,1-.435-.532c-.2-.463-.361-1.684.148-2.031l-.1-.06V7.778c0-.245-.028-.541-.032-.851,0-1.147-.042-2.535-.962-2.813l-.393-.12.25-.291A15.188,15.188,0,0,1,6.625,1.362,5.852,5.852,0,0,1,9.29.043a3.238,3.238,0,0,1,2.6.726,4.723,4.723,0,0,1,.694.7,2.947,2.947,0,0,1,2.082,1.217,4.187,4.187,0,0,1,.675,1.388,4.733,4.733,0,0,1,.185,1.55,3.733,3.733,0,0,1-1.083,2.512.763.763,0,0,1,.338.088.837.837,0,0,1,.3,1.027c-.1.31-.227.675-.347.981-.143.412-.356.486-.768.463a2.738,2.738,0,0,1-1.124,2.114l.143.5c-.4,1.938-4.626,2.147-5.787.106Zm37.177.509a1.781,1.781,0,0,1,.185-.643,2.623,2.623,0,0,1-1.032-1.915h-.037a.754.754,0,0,1-.37-.1,1,1,0,0,1-.412-.5c-.19-.435-.338-1.578.139-1.906l-.093-.06V8.63c0-.231,0-.514-.028-.8,0-1.078-.037-2.383-.925-2.642l-.37-.116.245-.3a13.81,13.81,0,0,1,2.17-2.2,5.505,5.505,0,0,1,2.512-1.221,3.03,3.03,0,0,1,2.443.685,4.626,4.626,0,0,1,.652.657,2.776,2.776,0,0,1,1.957,1.143,4.034,4.034,0,0,1,.638,1.286,4.548,4.548,0,0,1,.171,1.457A3.525,3.525,0,0,1,51.2,8.93a.708.708,0,0,1,.315.083.782.782,0,0,1,.282.962c-.1.3-.217.634-.328.925-.134.389-.333.463-.722.421a2.512,2.512,0,0,1-1.055,1.985l.134.463c-.379,1.823-4.363,2.022-5.44.1Z" transform="translate(0 -0.003)" fill-rule="evenodd"/>
</svg>
