<svg width="25" height="28" viewBox="0 0 25 28" fill="none" xmlns="http://www.w3.org/2000/svg">
<path d="M15.25 2.0625C15.25 3.20375 14.3287 4.125 13.1875 4.125C12.0463 4.125 11.125 3.20375 11.125 2.0625C11.125 0.92125 12.0463 0 13.1875 0C14.3287 0 15.25 0.92125 15.25 2.0625ZM7.6875 4.125C6.54625 4.125 5.625 5.04625 5.625 6.1875C5.625 7.32875 6.54625 8.25 7.6875 8.25C8.82875 8.25 9.75 7.32875 9.75 6.1875C9.75 5.04625 8.82875 4.125 7.6875 4.125ZM15.25 13.75L14.1775 10.6562H18.2475L21.2175 9.17125C21.7262 8.9375 21.9325 8.305 21.6712 7.79625C21.6131 7.67401 21.531 7.56467 21.4299 7.47467C21.3287 7.38468 21.2106 7.31587 21.0824 7.27229C20.9543 7.22871 20.8186 7.21125 20.6836 7.22095C20.5486 7.23065 20.4169 7.2673 20.2962 7.32875L19.1688 7.8925L18.495 6.7375C18.0963 5.84375 17.12 5.335 16.1575 5.555L12.7612 6.28375C11.8125 6.49 11.125 7.35625 11.125 8.34625V9.30875L7.78375 11.5363H7.7975C7.6875 11.6325 7.53625 11.7563 7.45375 11.9213L6.23 14.355L3.7825 15.5787C3.27375 15.8125 3.0675 16.4587 3.32875 16.9675C3.45319 17.2114 3.66918 17.3961 3.92944 17.4811C4.18971 17.5661 4.47306 17.5446 4.7175 17.4212L7.77 15.895L9.2 13.0625L11.125 15.125C9.75 19.25 0.125 24.75 0.125 24.75C0.125 24.75 5.625 27.5 12.5 27.5C19.375 27.5 24.875 24.75 24.875 24.75C24.875 24.75 18 19.25 15.25 13.75ZM19.1688 12.4988L18.7288 12.7188H17.0788L17.1613 12.9387C17.8763 14.355 18.9212 15.8125 20.0625 17.105L19.3337 12.4162L19.1688 12.4988Z" fill="#01041B"/>
</svg>
