<svg width="27" height="27" viewBox="0 0 27 27" fill="none" xmlns="http://www.w3.org/2000/svg">
<path d="M23.6675 1.00015C23.4206 1.00015 23.1621 1.08314 22.974 1.27132L22.5823 1.694L22.401 1.54345C22.3562 1.49669 22.3025 1.45947 22.2429 1.43405C22.1834 1.40862 22.1194 1.39551 22.0547 1.39551C21.9899 1.39551 21.9259 1.40862 21.8664 1.43405C21.8069 1.45947 21.7531 1.49669 21.7084 1.54345C21.6616 1.58823 21.6244 1.642 21.599 1.70154C21.5736 1.76108 21.5605 1.82516 21.5605 1.8899C21.5605 1.95464 21.5736 2.01871 21.599 2.07825C21.6244 2.13779 21.6616 2.19157 21.7084 2.23634L21.8588 2.41776L21.6177 2.65902L21.4363 2.50751C21.3916 2.46075 21.3378 2.42353 21.2783 2.3981C21.2188 2.37268 21.1547 2.35957 21.09 2.35957C21.0253 2.35957 20.9613 2.37268 20.9017 2.3981C20.8422 2.42353 20.7885 2.46075 20.7437 2.50751C20.6967 2.55231 20.6592 2.6062 20.6336 2.66592C20.608 2.72564 20.5948 2.78994 20.5948 2.85492C20.5948 2.9199 20.608 2.9842 20.6336 3.04392C20.6592 3.10364 20.6967 3.15753 20.7437 3.20233L20.8942 3.38279L20.7128 3.56325C20.5959 3.67907 20.5119 3.824 20.4695 3.9831C20.4271 4.1422 20.4278 4.30973 20.4717 4.46844L16.2514 8.69041C15.3803 7.92804 14.0626 7.03153 12.634 7.03153C12.0002 7.03153 11.349 7.22454 10.7047 7.66459C9.27507 8.64215 9.54902 10.1235 8.6548 10.9823C7.65157 11.9474 4.90909 11.1695 2.38462 13.696C-0.139856 16.2205 0.97913 19.7129 4.19332 22.8038C6.12068 24.8092 8.19466 26 10.1018 26C11.2507 26 12.3475 25.5638 13.2976 24.6133C15.8221 22.0878 15.0446 19.3462 16.0102 18.3406C16.8687 17.448 18.3784 17.751 19.3566 16.3199C20.791 14.2229 19.4067 12.0053 18.3012 10.7411L22.5215 6.51911C22.8399 6.60017 23.1765 6.52779 23.4264 6.27785L23.6068 6.09643L23.7881 6.24794C23.8297 6.29478 23.8806 6.33239 23.9376 6.35832C23.9946 6.38425 24.0564 6.39793 24.119 6.39848C24.2548 6.39756 24.3848 6.34312 24.4807 6.24697C24.5275 6.2022 24.5647 6.14842 24.5901 6.08888C24.6155 6.02934 24.6286 5.96527 24.6286 5.90053C24.6286 5.83579 24.6155 5.77171 24.5901 5.71217C24.5647 5.65263 24.5275 5.59886 24.4807 5.55408L24.3303 5.37266L24.5714 5.13141L24.7528 5.28291C24.7943 5.32976 24.8452 5.36737 24.9022 5.3933C24.9592 5.41923 25.021 5.43291 25.0836 5.43346C25.2195 5.43254 25.3494 5.3781 25.4454 5.28195C25.4921 5.23718 25.5293 5.1834 25.5547 5.12386C25.5802 5.06432 25.5933 5.00025 25.5933 4.93551C25.5933 4.87076 25.5802 4.80669 25.5547 4.74715C25.5293 4.68761 25.4921 4.63384 25.4454 4.58906L25.2949 4.40764L25.7174 4.01584C25.807 3.92702 25.878 3.82135 25.9265 3.70491C25.975 3.58847 26 3.46357 26 3.33743C26 3.21129 25.975 3.08639 25.9265 2.96995C25.878 2.85351 25.807 2.74784 25.7174 2.65902L24.3293 1.27035C24.2431 1.18277 24.1399 1.11365 24.0262 1.06719C23.9124 1.02074 23.7904 0.99793 23.6675 1.00015ZM23.6068 2.14659C23.6811 2.14659 23.7611 2.15045 23.818 2.20642C23.8724 2.26334 23.9027 2.33904 23.9027 2.41776C23.9027 2.49649 23.8724 2.57219 23.818 2.6291L21.8887 4.55915C21.8327 4.61545 21.7569 4.64766 21.6775 4.64889C21.5984 4.64675 21.5231 4.61428 21.4672 4.55818C21.4131 4.50131 21.3829 4.42582 21.3829 4.34733C21.3829 4.26883 21.4131 4.19334 21.4672 4.13647L23.3965 2.20642C23.4524 2.15045 23.5335 2.14659 23.6068 2.14659ZM24.5714 3.11161C24.6457 3.11161 24.7258 3.11451 24.7827 3.17145C24.8373 3.22825 24.8678 3.30399 24.8678 3.38279C24.8678 3.46158 24.8373 3.53732 24.7827 3.59413L22.8534 5.52417C22.7971 5.58014 22.7215 5.61228 22.6421 5.61392C22.5631 5.61203 22.4879 5.57991 22.4318 5.52417C22.3775 5.46725 22.3471 5.39156 22.3471 5.31283C22.3471 5.2341 22.3775 5.15841 22.4318 5.10149L24.3611 3.17145C24.4171 3.11548 24.4981 3.11161 24.5714 3.11161ZM12.634 8.38739C13.56 8.38739 14.5382 9.01658 15.2867 9.65446L12.061 12.8815C11.9896 12.8738 11.924 12.8506 11.8507 12.8506C11.2437 12.8526 10.6621 13.0948 10.2329 13.5242C9.8037 13.9535 9.56167 14.5353 9.55963 15.1425C9.56167 15.7498 9.8037 16.3315 10.2329 16.7609C10.6621 17.1903 11.2437 17.4324 11.8507 17.4345C12.4577 17.4324 13.0392 17.1903 13.4684 16.7609C13.8976 16.3315 14.1397 15.7498 14.1417 15.1425C14.1417 15.0692 14.1185 15.0036 14.1118 14.9312L17.3665 11.6752C18.2038 12.646 19.1492 14.2074 18.2414 15.5353C17.9462 15.9657 17.5749 16.124 16.915 16.3488C16.3343 16.5466 15.6079 16.7879 15.0157 17.4046C14.3655 18.081 14.2208 18.9708 14.051 19.9078C13.8369 21.0842 13.5967 22.414 12.333 23.6772C11.6693 24.3411 10.9381 24.6721 10.1018 24.6721C8.6384 24.6721 6.88275 23.6627 5.15797 21.8678C5.14848 21.8573 5.1385 21.8474 5.12806 21.8379C3.34829 20.1288 2.33928 18.3802 2.32481 16.923C2.31516 16.0728 2.647 15.3355 3.31936 14.661C4.58304 13.3968 5.91232 13.1556 7.08725 12.9423C8.02392 12.7724 8.91429 12.5978 9.58954 11.9474C10.2011 11.3606 10.4432 10.6513 10.6449 10.0771C10.8764 9.419 11.0211 9.07931 11.459 8.78015C11.8333 8.52442 12.2211 8.38739 12.634 8.38739ZM6.27309 16.7107C6.19387 16.7124 6.11845 16.745 6.0628 16.8014L5.4599 17.4055C5.40463 17.462 5.37368 17.5378 5.37368 17.6169C5.37368 17.6959 5.40463 17.7717 5.4599 17.8282L9.16702 21.5368C9.28085 21.6497 9.47571 21.6497 9.58954 21.5368L10.1924 20.9336C10.247 20.877 10.2774 20.8014 10.2774 20.7228C10.2774 20.6441 10.247 20.5686 10.1924 20.5119L6.48435 16.8024C6.4287 16.7459 6.35328 16.7134 6.27406 16.7117L6.27309 16.7107Z" fill="#01041B" stroke="#01041B"/>
</svg>
