<svg width="26" height="26" viewBox="0 0 26 26" fill="none" xmlns="http://www.w3.org/2000/svg">
<path d="M22.6078 14.2999C23.9633 12.8354 24.6989 10.9029 24.6603 8.90777C24.6218 6.91263 23.8121 5.00995 22.401 3.59891C20.99 2.18787 19.0873 1.37813 17.0922 1.33958C15.097 1.30103 13.1645 2.03665 11.7 3.39213L11.6086 3.48354L11.5172 3.57494C10.1239 5.01241 9.34441 6.93554 9.34373 8.93744C9.34373 9.16088 9.35389 9.38432 9.3742 9.60776L1.86873 19.8453C1.57776 20.2338 1.43793 20.7148 1.4753 21.1987C1.51267 21.6827 1.72469 22.1365 2.07186 22.4757L3.5242 23.9281C3.86453 24.2733 4.31812 24.484 4.80147 24.5213C5.28481 24.5586 5.76537 24.4201 6.15467 24.1312L16.3922 16.6257C16.6156 16.646 16.839 16.6562 17.0625 16.6562C19.0644 16.6555 20.9875 15.8761 22.425 14.4828L22.5164 14.3914L22.6078 14.2999ZM22.3437 8.93744C22.3463 9.91786 22.0717 10.879 21.5515 11.7101L14.2898 4.44838C15.1209 3.92822 16.0821 3.65359 17.0625 3.65619C18.4632 3.65619 19.8065 4.21261 20.7969 5.20304C21.7873 6.19346 22.3437 7.53677 22.3437 8.93744ZM11.7812 8.93744C11.7786 7.95703 12.0533 6.99585 12.5734 6.16479L19.8351 13.4265C19.0041 13.9467 18.0429 14.2213 17.0625 14.2187C15.6618 14.2187 14.3185 13.6623 13.3281 12.6719C12.3376 11.6814 11.7812 10.3381 11.7812 8.93744ZM4.99686 21.9578L4.04217 21.0031L10.2375 12.5429C10.9671 13.912 12.0879 15.0328 13.457 15.7624L4.99686 21.9578Z" fill="#01041B"/>
</svg>
