<svg width="27" height="27" viewBox="0 0 27 27" fill="none" xmlns="http://www.w3.org/2000/svg">
<path d="M9.375 15C9.375 16.6575 8.0325 18 6.375 18C4.7175 18 3.375 16.6575 3.375 15C3.375 13.3425 4.7175 12 6.375 12C8.0325 12 9.375 13.3425 9.375 15Z" fill="#01041B"/>
<path fill-rule="evenodd" clip-rule="evenodd" d="M6.375 16.5C6.77282 16.5 7.15436 16.342 7.43566 16.0607C7.71696 15.7794 7.875 15.3978 7.875 15C7.875 14.6022 7.71696 14.2206 7.43566 13.9393C7.15436 13.658 6.77282 13.5 6.375 13.5C5.97718 13.5 5.59564 13.658 5.31434 13.9393C5.03304 14.2206 4.875 14.6022 4.875 15C4.875 15.3978 5.03304 15.7794 5.31434 16.0607C5.59564 16.342 5.97718 16.5 6.375 16.5ZM6.375 18C8.0325 18 9.375 16.6575 9.375 15C9.375 13.3425 8.0325 12 6.375 12C4.7175 12 3.375 13.3425 3.375 15C3.375 16.6575 4.7175 18 6.375 18Z" fill="#01041B"/>
<path d="M0 22.9087C0 20.6422 4.24725 19.5 6.375 19.5C8.50275 19.5 12.75 20.6422 12.75 22.9087V27H0V22.9087Z" fill="#01041B"/>
<path fill-rule="evenodd" clip-rule="evenodd" d="M1.7505 22.4873C1.5135 22.7213 1.5 22.8555 1.5 22.9095V25.5H11.25V22.9087C11.25 22.8562 11.2365 22.7213 10.9995 22.4873C10.749 22.2405 10.3357 21.9758 9.7695 21.7335C8.6295 21.2453 7.2375 21 6.375 21C5.5125 21 4.11975 21.2453 2.9805 21.7335C2.41425 21.9758 2.001 22.2405 1.7505 22.4873ZM6.375 19.5C4.24725 19.5 0 20.6422 0 22.9087V27H12.75V22.9087C12.75 20.6422 8.50275 19.5 6.375 19.5Z" fill="#01041B"/>
<path d="M23.625 15C23.625 16.6575 22.2825 18 20.625 18C18.9675 18 17.625 16.6575 17.625 15C17.625 13.3425 18.9675 12 20.625 12C22.2825 12 23.625 13.3425 23.625 15Z" fill="#01041B"/>
<path fill-rule="evenodd" clip-rule="evenodd" d="M20.625 16.5C21.0228 16.5 21.4044 16.342 21.6857 16.0607C21.967 15.7794 22.125 15.3978 22.125 15C22.125 14.6022 21.967 14.2206 21.6857 13.9393C21.4044 13.658 21.0228 13.5 20.625 13.5C20.2272 13.5 19.8456 13.658 19.5643 13.9393C19.283 14.2206 19.125 14.6022 19.125 15C19.125 15.3978 19.283 15.7794 19.5643 16.0607C19.8456 16.342 20.2272 16.5 20.625 16.5ZM20.625 18C22.2825 18 23.625 16.6575 23.625 15C23.625 13.3425 22.2825 12 20.625 12C18.9675 12 17.625 13.3425 17.625 15C17.625 16.6575 18.9675 18 20.625 18Z" fill="#01041B"/>
<path d="M16.5 13.5C16.5 15.1575 15.1575 16.5 13.5 16.5C11.8425 16.5 10.5 15.1575 10.5 13.5C10.5 11.8425 11.8425 10.5 13.5 10.5C15.1575 10.5 16.5 11.8425 16.5 13.5Z" fill="#01041B"/>
<path fill-rule="evenodd" clip-rule="evenodd" d="M13.5 15C13.8978 15 14.2794 14.842 14.5607 14.5607C14.842 14.2794 15 13.8978 15 13.5C15 13.1022 14.842 12.7206 14.5607 12.4393C14.2794 12.158 13.8978 12 13.5 12C13.1022 12 12.7206 12.158 12.4393 12.4393C12.158 12.7206 12 13.1022 12 13.5C12 13.8978 12.158 14.2794 12.4393 14.5607C12.7206 14.842 13.1022 15 13.5 15ZM13.5 16.5C15.1575 16.5 16.5 15.1575 16.5 13.5C16.5 11.8425 15.1575 10.5 13.5 10.5C11.8425 10.5 10.5 11.8425 10.5 13.5C10.5 15.1575 11.8425 16.5 13.5 16.5Z" fill="#01041B"/>
<path d="M12.75 5.12476C12.75 4.16341 12.3682 3.24144 11.6884 2.56167C11.0086 1.8819 10.0866 1.5 9.1253 1.5H6.74855C5.7651 1.49842 4.82042 1.88339 4.11819 2.57191C3.41597 3.26042 3.01244 4.19733 2.99463 5.18062C2.97682 6.16391 3.34615 7.11481 4.02298 7.8283C4.69982 8.5418 5.62994 8.96072 6.6128 8.99476L6.75005 9.00001V10.5C6.75005 10.5 12.75 9.62476 12.75 5.12476Z" fill="#01041B"/>
<path d="M15 3.927C15 2.88549 15.4137 1.88665 16.1502 1.15019C16.8866 0.413736 17.8855 0 18.927 0H23.25C24.2446 0 25.1984 0.395088 25.9017 1.09835C26.6049 1.80161 27 2.75544 27 3.75C27 4.74456 26.6049 5.69839 25.9017 6.40165C25.1984 7.10491 24.2446 7.5 23.25 7.5H21.75V9.75C21.75 9.75 15 8.802 15 3.927Z" fill="#01041B"/>
<path d="M14.25 22.9087C14.25 20.6422 18.4973 19.5 20.625 19.5C22.7528 19.5 27 20.6422 27 22.9087V27H14.25V22.9087Z" fill="#01041B"/>
<path fill-rule="evenodd" clip-rule="evenodd" d="M16.0005 22.4873C15.7635 22.7213 15.75 22.8555 15.75 22.9095V25.5H25.5V22.9087C25.5 22.8562 25.4865 22.7213 25.2495 22.4873C24.999 22.2405 24.5858 21.9758 24.0195 21.7335C22.8795 21.2453 21.4875 21 20.625 21C19.7625 21 18.3698 21.2453 17.2305 21.7335C16.6643 21.9758 16.251 22.2405 16.0005 22.4873ZM20.625 19.5C18.4973 19.5 14.25 20.6422 14.25 22.9087V27H27V22.9087C27 20.6422 22.7528 19.5 20.625 19.5Z" fill="#01041B"/>
<path fill-rule="evenodd" clip-rule="evenodd" d="M13.5 21.75V21.4087C13.5 20.151 12.1147 19.239 10.4962 18.6765C11.4355 18.2327 12.4611 18.0017 13.5 18C14.5388 18.0017 15.5645 18.2327 16.5037 18.6765C14.886 19.239 13.5 20.151 13.5 21.4087V21.75Z" fill="#01041B"/>
<path fill-rule="evenodd" clip-rule="evenodd" d="M13.5 21.75V21.4087C13.5 20.739 13.893 20.1668 14.505 19.6935C14.5401 19.6667 14.5756 19.6405 14.6115 19.6148C15.1335 19.2353 15.7965 18.9225 16.5037 18.6773C15.8012 18.346 15.0493 18.132 14.2777 18.0435C13.7611 17.9855 13.2396 17.9855 12.723 18.0435C11.9512 18.1316 11.199 18.3455 10.4962 18.6765C11.2035 18.9225 11.8665 19.2353 12.3892 19.614C12.4252 19.6403 12.4597 19.6665 12.4942 19.6935C13.107 20.166 13.5 20.739 13.5 21.4087V21.75Z" fill="#01041B"/>
</svg>
