<svg width="28" height="25" viewBox="0 0 28 25" fill="none" xmlns="http://www.w3.org/2000/svg">
<path d="M13.9999 6.08333C15.6798 6.08333 17.0416 4.72153 17.0416 3.04167C17.0416 1.3618 15.6798 0 13.9999 0C12.3201 0 10.9583 1.3618 10.9583 3.04167C10.9583 4.72153 12.3201 6.08333 13.9999 6.08333Z" fill="#01041B"/>
<path d="M27.6875 18.2501V15.2084C24.2808 15.2084 21.3608 13.7484 19.1708 11.1326L17.1329 8.69925C16.85 8.35626 16.4946 8.08019 16.0922 7.89086C15.6899 7.70154 15.2507 7.60366 14.806 7.60425H13.2092C12.3119 7.60425 11.4602 7.99967 10.8823 8.69925L8.84437 11.1326C6.63916 13.7484 3.71917 15.2084 0.3125 15.2084V18.2501C4.52521 18.2501 8.20562 16.4707 10.9583 13.3074V16.7292L5.0575 19.0865C4.03854 19.4972 3.35417 20.5009 3.35417 21.6111C3.35417 23.1167 4.57083 24.3334 6.07646 24.3334H9.4375V23.573C9.4375 22.5646 9.83807 21.5975 10.5511 20.8845C11.2641 20.1715 12.2312 19.7709 13.2396 19.7709H17.8021C18.2279 19.7709 18.5625 20.1055 18.5625 20.5313C18.5625 20.9572 18.2279 21.2917 17.8021 21.2917H13.2396C11.9773 21.2917 10.9583 22.3107 10.9583 23.573V24.3334H21.9235C23.4292 24.3334 24.6458 23.1167 24.6458 21.6111C24.6458 20.5009 23.9615 19.4972 22.9425 19.0865L17.0417 16.7292V13.3074C19.7944 16.4707 23.4748 18.2501 27.6875 18.2501Z" fill="#01041B"/>
</svg>
