<svg width="23" height="34" viewBox="0 0 23 34" fill="none" xmlns="http://www.w3.org/2000/svg">
<path d="M15.408 14.6675L21 2L15.408 14.6675ZM7.974 14.948L1.5 2L7.974 14.948ZM13.1415 14.072L7.2525 2L13.1415 14.072ZM15.54 2L13.98 5.75L15.54 2ZM3 23C3 25.3869 3.94821 27.6761 5.63604 29.364C7.32387 31.0518 9.61305 32 12 32C14.3869 32 16.6761 31.0518 18.364 29.364C20.0518 27.6761 21 25.3869 21 23C21 20.6131 20.0518 18.3239 18.364 16.636C16.6761 14.9482 14.3869 14 12 14C9.61305 14 7.32387 14.9482 5.63604 16.636C3.94821 18.3239 3 20.6131 3 23V23Z" stroke="#01041B" stroke-width="2.5" stroke-linecap="round" stroke-linejoin="round"/>
<path d="M9.75 21.5L12.75 19.25V26.75" stroke="#01041B" stroke-width="2.5" stroke-linecap="round" stroke-linejoin="round"/>
</svg>
