<svg width="29" height="29" viewBox="0 0 29 29" fill="none" xmlns="http://www.w3.org/2000/svg">
<path d="M2.71875 14.5C2.71875 11.3754 3.95999 8.37881 6.1694 6.1694C8.37881 3.95999 11.3754 2.71875 14.5 2.71875C17.6246 2.71875 20.6212 3.95999 22.8306 6.1694C25.04 8.37881 26.2812 11.3754 26.2812 14.5C26.2812 17.6246 25.04 20.6212 22.8306 22.8306C20.6212 25.04 17.6246 26.2812 14.5 26.2812C11.3754 26.2812 8.37881 25.04 6.1694 22.8306C3.95999 20.6212 2.71875 17.6246 2.71875 14.5ZM10.2279 5.49187C8.90565 6.12069 7.7375 7.03207 6.80594 8.16169L7.97862 11.9752L9.802 12.5824L13.5938 9.7005V7.73575L10.2279 5.49006V5.49187ZM4.5965 15.6491C4.77775 17.2169 5.3215 18.676 6.14256 19.9357H9.59356L10.7445 18.7847L9.25281 14.3079L7.39681 13.6898L4.5965 15.6473V15.6491ZM12.4809 24.2621C13.813 24.5363 15.187 24.5363 16.5191 24.2621L17.951 21.0431L16.8436 19.9375H12.1564L11.0508 21.0431L12.4809 24.2639V24.2621ZM22.8556 19.9375C23.6531 18.7159 24.1896 17.3094 24.3854 15.7959L21.5869 13.6971L19.7472 14.3097L18.2555 18.7866L19.4064 19.9375H22.8556ZM22.1705 8.13269C21.2429 7.01565 20.0832 6.1139 18.7721 5.49006L15.4062 7.73575V9.7005L19.198 12.5824L21.0177 11.977L22.1705 8.13269Z" fill="#01041B"/>
</svg>
