<svg width="24" height="24" viewBox="0 0 24 24" fill="none" xmlns="http://www.w3.org/2000/svg">
<path d="M12 0C5.37258 0 0 5.37258 0 12C0 18.6274 5.37258 24 12 24C18.6274 24 24 18.6274 24 12C24 5.37258 18.6274 0 12 0ZM9.02508 3.25228C9.46206 3.48756 9.97858 3.71014 10.5752 3.9202C11.1719 4.13028 11.7644 4.23556 12.3526 4.23556C12.7867 4.23472 13.2198 4.12698 13.5881 3.85714C13.9448 3.64338 14.2901 3.47282 14.7477 3.51672C15.218 3.5681 15.7132 3.73002 16.2097 3.75684C16.8316 4.09296 17.4369 4.51252 18.0251 5.01672C17.7394 5.03352 17.4364 5.0636 17.1171 5.10564C16.7977 5.14766 16.4872 5.21006 16.1847 5.29408C15.8822 5.3781 15.6047 5.4879 15.3526 5.62234C15.1005 5.7568 14.9155 5.92446 14.7979 6.12614C14.613 6.42866 14.483 6.68506 14.4073 6.89514C14.2517 7.33072 14.2885 8.0257 13.9286 8.34498C13.853 8.3954 13.7898 8.45404 13.7394 8.52126C13.689 8.5885 13.6679 8.67648 13.6763 8.7857C13.6847 8.89494 13.7396 9.0506 13.8405 9.25228C13.8909 9.36994 13.9322 9.51276 13.9658 9.68084C14.2851 9.67982 14.6163 9.63178 14.899 9.42856L16.5631 9.5798C16.9927 9.09594 17.4933 9.08788 17.924 9.5798C18.0585 9.71424 18.2014 9.9165 18.3526 10.1854L17.6467 10.6641C17.4786 10.6137 17.2771 10.513 17.0418 10.3617C16.9245 10.2945 16.8064 10.2185 16.6885 10.1345C16.0178 9.809 14.7045 10.1881 13.9658 10.2356C13.8695 10.4282 13.7919 10.6168 13.5631 10.6642C13.5233 10.7888 13.5617 10.9225 13.5122 11.0426C13.1928 11.5468 13.0838 12.0761 13.1847 12.6307C13.3695 13.5047 13.8229 13.9415 14.5456 13.9415H14.823C15.1759 13.9415 15.424 13.9581 15.5669 13.9917C15.7098 14.0253 15.7812 14.0508 15.7812 14.0677C15.6972 14.2693 15.6678 14.4287 15.693 14.5464C15.7763 14.9239 16.0486 15.2095 16.0205 15.6178C15.9944 16.1371 15.8312 16.5849 16.0084 17.1057C16.2105 17.6108 16.4643 18.1594 16.6513 18.6809C16.7269 18.8322 16.8404 18.9247 16.9917 18.9583C17.2942 19.0087 17.6724 18.8072 18.1262 18.3534C18.4623 17.9836 18.6556 17.5799 18.706 17.1429C18.7725 16.7561 19.0452 16.4125 19.1345 16.0084V15.6809C19.2184 15.5128 19.2899 15.3489 19.3488 15.1893C19.4329 14.9572 19.4421 14.6615 19.462 14.3952C19.7263 14.131 19.9841 13.8951 20.168 13.5631C20.2856 13.3614 20.3195 13.1855 20.269 13.0342C20.2529 13.0006 20.2108 12.9668 20.1429 12.9332L19.7645 12.782C19.7709 12.5706 20.1595 12.6021 20.3442 12.6307L21.2515 12.076C21.2179 13.2189 20.9953 14.3241 20.5836 15.3914C20.1719 16.4586 19.5628 17.4203 18.7561 18.2774C17.6805 19.4539 16.3903 20.2945 14.886 20.7987C13.3818 21.3029 11.8315 21.4036 10.2348 21.1011C10.5097 20.6155 10.6684 20.0683 10.9917 19.5882C10.9917 19.3361 11.0293 19.1218 11.1049 18.9453C11.4257 18.203 11.9493 18.0098 12.5547 17.4332C13.1657 16.7964 13.1599 16.0439 13.1847 15.1262C13.1763 14.5453 12.2475 14.1887 11.823 13.8655C10.8389 13.2024 10.214 12.2267 8.81082 12.5168C8.30932 12.5679 8.18792 12.6653 7.8146 12.3534L7.66338 12.2774L7.6763 12.2272L7.73936 12.1011C7.88996 11.9436 7.67616 11.7455 7.47416 11.8108C7.43214 11.8192 7.38628 11.8237 7.33586 11.8237C7.28978 11.5986 7.13872 11.3891 7.10866 11.1429C7.34394 11.3277 7.5462 11.4668 7.71428 11.5593C7.8823 11.6517 8.02516 11.7149 8.14286 11.7485C8.26052 11.7989 8.36126 11.8155 8.44528 11.7987C8.63016 11.765 8.73468 11.5801 8.75986 11.2439C8.78508 10.9078 8.77304 10.5213 8.72264 10.0844C8.77306 10.0172 8.80614 9.9495 8.82294 9.88224C9.00058 8.96368 9.47098 9.16512 10.1847 8.89972C10.3023 8.8325 10.3271 8.74828 10.2599 8.64744C10.2599 8.63062 10.2561 8.62236 10.2477 8.62236C10.2394 8.62236 10.2348 8.61334 10.2348 8.59652C10.6228 8.40168 10.8513 8.00274 11.092 7.63908C10.8869 7.31414 10.5686 7.04284 10.2097 6.85716C10.0173 6.6198 9.26178 6.76532 9.10032 6.37842C8.96586 6.3616 8.86512 6.33604 8.79788 6.30244C8.11724 5.86134 7.82974 5.09 7.09652 4.77736C6.80238 4.75216 6.51216 4.75668 6.22646 4.79028C7.08358 4.10122 8.01666 3.58844 9.02508 3.25228ZM2.89894 10.3617C3.0502 10.6138 3.23516 10.8409 3.45364 11.0425C4.58762 12.0843 5.65352 12.305 7.10866 12.8321C7.17582 12.8825 7.26832 12.9667 7.38602 13.0843C7.54456 13.2047 7.67872 13.3488 7.84044 13.4628C7.84044 13.5468 7.82766 13.6641 7.80244 13.8154C7.77724 13.9666 7.7727 14.2102 7.78952 14.5464C7.8381 15.4817 8.60944 16.2221 8.82296 17.1178C8.63358 18.2786 8.63088 19.4194 8.49546 20.5714C7.3526 20.1009 6.34886 19.4287 5.4833 18.5547C4.61776 17.6808 3.94934 16.6642 3.47874 15.5046C3.14262 14.6642 2.92832 13.8108 2.83588 12.9453C2.74332 12.0797 2.7644 11.2188 2.89894 10.3617Z" fill="#01041B"/>
</svg>
